HIERARCHY
ROOT ui
{
	 OFFSET 0 0 0
	 CHANNELS 3 XPosition YPosition Z Position
	 EndSite
	 {
	 OFFSET 0 -1 0
	 }
}
ROOT li
{
	 OFFSET 0 0 0
	 CHANNELS 3 XPosition YPosition Z Position
	 EndSite
	 {
	 OFFSET 0 -1 0
	 }
}
ROOT ul
{
	 OFFSET 0 0 0
	 CHANNELS 3 XPosition YPosition Z Position
	 EndSite
	 {
	 OFFSET 0 -1 0
	 }
}
ROOT ll
{
	 OFFSET 0 0 0
	 CHANNELS 3 XPosition YPosition Z Position
	 EndSite
	 {
	 OFFSET 0 -1 0
	 }
}
ROOT tt
{
	 OFFSET 0 0 0
	 CHANNELS 3 XPosition YPosition Z Position
	 EndSite
	 {
	 OFFSET 0 -1 0
	 }
}
ROOT tb
{
	 OFFSET 0 0 0
	 CHANNELS 3 XPosition YPosition Z Position
	 EndSite
	 {
	 OFFSET 0 -1 0
	 }
}
ROOT td
{
	 OFFSET 0 0 0
	 CHANNELS 3 XPosition YPosition Z Position
	 EndSite
	 {
	 OFFSET 0 -1 0
	 }
}
ROOT v
{
	 OFFSET 0 0 0
	 CHANNELS 3 XPosition YPosition Z Position
	 EndSite
	 {
	 OFFSET 0 -1 0
	 }
}
ROOT bn
{
	 OFFSET 0 0 0
	 CHANNELS 3 XPosition YPosition Z Position
	 EndSite
	 {
	 OFFSET 0 -1 0
	 }
}
MOTION
Frames: 13
Frame Time: 0.002
-0.04867881774902344	-2.8838899731636045E-4	0		0.43920187377929687	-2.303384033203125	0		-0.9130480346679688	0.32222488403320315	0		-0.7314930419921875	-2.49947412109375	0		1.6292900390625	-0.408368896484375	0		3.304027587890625	-0.2703042297363281	0		4.3226376953125	-0.1335030517578125	0		5.92445556640625	0.45693838500976564	0		-0.11475537109375	5.92184130859375	0		
0.03223980331420898	2.1858599781990053E-4	0		0.43323907470703127	-2.290338623046875	0		-0.9090682373046876	0.3261467590332031	0		-0.7764574584960937	-2.4856826171875	0		1.6322406005859376	-0.4045313415527344	0		3.324998779296875	-0.26585687255859375	0		4.33102880859375	-0.1058672866821289	0		5.9333681640625	0.45649630737304686	0		-0.11462144470214844	5.92180322265625	0		
-0.041823184967041016	0.005502639770507812	0		0.45790899658203127	-2.29584765625	0		-0.9250919189453125	0.33242514038085935	0		-0.70683837890625	-2.493952392578125	0		1.6320780029296875	-0.4046386413574219	0		3.29870849609375	-0.21755288696289063	0		4.32352587890625	-0.0699420166015625	0		5.94025634765625	0.45709518432617186	0		-0.12973233032226564	5.91103515625	0		
0.028854396820068358	-0.0028211851119995116	0		0.4556021423339844	-2.297876708984375	0		-0.9252645263671875	0.33241162109375	0		-0.747146484375	-2.495253662109375	0		1.62880615234375	-0.408693359375	0		3.294587890625	-0.21365338134765624	0		4.322130859375	-0.02612342071533203	0		5.944943359375	0.44873556518554686	0		-0.1296958312988281	5.9109921875	0		
-0.049332359313964846	-4.7187700867652895E-4	0		0.4464486389160156	-2.289788330078125	0		-0.9295416259765625	0.3284607849121094	0		-0.7155842895507812	-2.50285986328125	0		1.62857421875	-0.4088080749511719	0		3.265107421875	-0.17229293823242187	0		4.32050830078125	0.006696576118469238	0		5.9447421875	0.44846697998046875	0		-0.11450649261474609	5.92166748046875	0		
0.03821261978149414	-0.013127659797668457	0		0.46587362670898436	-2.3042314453125	0		-0.9257007446289063	0.3323503112792969	0		-0.7409964599609375	-2.507451904296875	0		1.6283187255859375	-0.4089315185546875	0		3.28185693359375	-0.17277859497070314	0		4.32113427734375	0.05447488403320312	0		5.94451513671875	0.4481985778808594	0		-0.11258590698242188	5.91956689453125	0		
-0.028834505081176756	-0.0010011800527572631	0		0.46758026123046875	-2.302365966796875	0		-0.9208936767578125	0.3352048034667969	0		-0.7002844848632812	-2.5052548828125	0		1.60010791015625	-0.40555975341796874	0		3.26773779296875	-0.1097039794921875	0		4.3168935546875	0.11033694458007813	0		5.9435625	0.4639438171386719	0		-0.11265682983398438	5.91948681640625	0		
0.03805544662475586	0.006683355808258057	0		0.45839724731445314	-2.294317626953125	0		-0.9261996459960937	0.3322231140136719	0		-0.7165811157226563	-2.50304443359375	0		1.6277747802734375	-0.40921368408203124	0		3.27058056640625	-0.10395482635498046	0		4.32017822265625	0.14005145263671875	0		5.94333203125	0.46466989135742187	0		-0.11470921325683593	5.92142626953125	0		
-0.050351722717285156	-8.349739909172059E-4	0		0.4628392639160156	-2.307535888671875	0		-0.8945269165039063	0.32755087280273437	0		-0.6772232055664062	-2.520865478515625	0		1.587548095703125	-0.40664898681640627	0		3.232088623046875	-0.06145972061157227	0		4.31768701171875	0.18186408996582032	0		5.94693994140625	0.4563193054199219	0		-0.1300032958984375	5.91058642578125	0		
0.027372068405151367	-0.003387499094009399	0		0.42674114990234374	-2.2960302734375	0		-0.9266856079101562	0.33201971435546873	0		-0.7145084838867187	-2.519310791015625	0		1.6193055419921876	-0.4064071350097656	0		3.2293154296875	-0.03562752532958984	0		4.303212890625	0.2238841094970703	0		5.94670654296875	0.45603179931640625	0		-0.13009716796875	5.91045458984375	0		
0.02715037727355957	-0.0035431299209594726	0		0.46225775146484377	-2.30784912109375	0		-0.926899169921875	0.33188714599609376	0		-0.7517666015625	-2.51777490234375	0		1.5640103759765625	-0.40959893798828123	0		3.21895068359375	0.011331995010375977	0		4.30888818359375	0.27252597045898436	0		5.94166064453125	0.4648226623535156	0		-0.11497811126708984	5.92102783203125	0		
0.030014373779296874	-7.742670178413391E-4	0		0.4401639709472656	-2.29963525390625	0		-0.9220277709960938	0.3346415100097656	0		-0.7150391845703125	-2.519607421875	0		1.581971923828125	-0.4011400146484375	0		3.203945556640625	0.021354333877563476	0		4.3064521484375	0.3132991943359375	0		5.94562646484375	0.4724361267089844	0		-0.11503173065185547	5.92085498046875	0		
0.029857872009277343	-9.706950187683105E-4	0		0.4550086669921875	-2.297115234375	0		-0.9272307739257812	0.33155801391601564	0		-0.7542633666992188	-2.520074951171875	0		1.5577557373046875	-0.4039322509765625	0		3.20550146484375	0.06006266021728516	0		4.30396044921875	0.34905657958984376	0		5.95349755859375	0.4729620971679688	0		-0.2626347045898437	5.89035107421875	0		
